Coordinates
version=1
nRows=4
nColumns=63
inDegrees=yes

Units are S.I. units (second, meters, Newtons, ...)
If the header above contains a line with 'inDegrees', this indicates whether rotational values are in degrees (yes) or radians (no).

endheader
time	pelvis_tilt	pelvis_list	pelvis_rotation	pelvis_tx	pelvis_ty	pelvis_tz	hip_flexion_r	hip_adduction_r	hip_rotation_r	knee_angle_r	knee_angle_r_beta	ankle_angle_r	subtalar_angle_r	mtp_angle_r	hip_flexion_l	hip_adduction_l	hip_rotation_l	knee_angle_l	knee_angle_l_beta	ankle_angle_l	subtalar_angle_l	mtp_angle_l	L5_S1_Flex_Ext	L5_S1_Lat_Bending	L5_S1_axial_rotation	L4_L5_Flex_Ext	L4_L5_Lat_Bending	L4_L5_axial_rotation	L3_L4_Flex_Ext	L3_L4_Lat_Bending	L3_L4_axial_rotation	L2_L3_Flex_Ext	L2_L3_Lat_Bending	L2_L3_axial_rotation	L1_L2_Flex_Ext	L1_L2_Lat_Bending	L1_L2_axial_rotation	L1_T12_Flex_Ext	L1_T12_Lat_Bending	L1_T12_axial_rotation	Abs_r3	Abs_r2	Abs_r1	Abs_t1	Abs_t2	neck_flexion	neck_bending	neck_rotation	arm_flex_r	arm_add_r	arm_rot_r	elbow_flex_r	pro_sup_r	wrist_flex_r	wrist_dev_r	arm_flex_l	arm_add_l	arm_rot_l	elbow_flex_l	pro_sup_l	wrist_flex_l	wrist_dev_l
      0.00000000	     -3.11933992	     -5.03310823	     92.83887244	      0.43741325	      0.75128830	      0.99023819	      2.56676522	     -3.13773804	    -10.93616301	     10.29520784	      0.17968527	     30.69458489	     13.93777762	      0.00000000	      2.84769998	      1.59844928	    -10.34527067	     10.65975011	      0.18604774	     31.92599405	     10.03890273	      0.00000000	     -0.03031509	     -0.31501143	      2.45730270	     -0.05629816	     -0.41896520	      2.61088411	     -0.04980467	     -0.76591878	      2.61088411	     -0.03464712	     -0.76591878	      2.15013986	     -0.02815060	     -0.64237130	      1.99655844	     -0.01732204	     -0.48795270	      1.84297702	     -0.21653768	     -3.56347225	     13.66678040	      0.00000000	      0.00000000	     25.32811021	      0.95085938	     -9.05011572	      4.25906842	    -13.72489583	     41.26352856	     62.60440654	     47.36605618	      4.77913703	     26.91239120	     22.22160492	    -11.07856099	     66.77961026	     59.89190023	     83.78069162	     13.80157678	     16.73944922
      0.01666667	     -2.96000430	     -4.80384781	     92.36659894	      0.43767293	      0.75123595	      0.98741557	      1.98589936	     -2.78061268	     -9.07911373	      9.44300755	      0.16481157	     31.54888799	     12.51216455	      0.00000000	      2.15802812	      1.57355926	     -8.44735776	     10.11463570	      0.17653370	     31.88785339	      8.14210649	      0.00000000	     -0.02171241	     -0.27793841	      2.32161532	     -0.04032211	     -0.36965808	      2.46671628	     -0.03567131	     -0.67577945	      2.46671628	     -0.02481511	     -0.67577945	      2.03141341	     -0.02016214	     -0.56677200	      1.88631245	     -0.01240647	     -0.43052660	      1.74121149	     -0.15508955	     -3.14409487	     12.91212793	      0.00000000	      0.00000000	     25.04186211	      1.18520178	     -7.53640172	      2.87619073	    -13.03836610	     40.43602187	     63.25457844	     48.87253635	      4.91404117	     24.47311401	     20.12629224	    -12.45871760	     63.65055614	     61.74989147	     84.22064716	     15.08438116	     14.77775378
      0.03333333	     -2.85687722	     -4.73145459	     92.03622398	      0.43792891	      0.75100947	      0.98553431	      1.69111435	     -2.60711362	     -8.40096459	      8.93342272	      0.15591764	     32.15073423	     12.26266970	      0.00000000	      1.79548698	      1.49541205	     -7.87220619	      9.83234219	      0.17160674	     31.94483750	      7.70778618	      0.00000000	     -0.00630816	     -0.26011580	      2.27838719	     -0.01171489	     -0.34595402	      2.42078639	     -0.01036368	     -0.63244556	      2.42078639	     -0.00720960	     -0.63244556	      1.99358879	     -0.00585776	     -0.53042814	      1.85118959	     -0.00360448	     -0.40291938	      1.70879039	     -0.04505858	     -2.94248197	     12.67170604	      0.00000000	      0.00000000	     24.91229771	      1.23524670	     -7.00646003	      1.74823566	    -12.56292427	     39.45806584	     63.77641245	     48.84993638	      4.99875391	     23.43043086	     18.80655854	    -13.35509764	     62.31507932	     63.04391412	     83.43235555	     15.54567678	     13.85285131
      0.05000000	     -2.69875749	     -4.67257187	     91.85499271	      0.43784983	      0.75083866	      0.98455049	      1.47968200	     -2.29666303	     -6.30997894	      8.53828741	      0.14902123	     32.06525551	      9.83503020	      0.00000000	      1.54187555	      1.52129591	     -5.71456638	      9.56040154	      0.16686048	     31.57307504	      4.91143473	      0.00000000	     -0.00006766	     -0.23409705	      2.18612918	     -0.00012564	     -0.31134907	      2.32276226	     -0.00011115	     -0.56918356	      2.32276226	     -0.00007732	     -0.56918356	      1.91286303	     -0.00006283	     -0.47737070	      1.77622996	     -0.00003866	     -0.36261633	      1.63959689	     -0.00048326	     -2.64815262	     12.15859467	      0.00000000	      0.00000000	     24.86410729	      1.47495545	     -6.14159232	      1.52429223	    -12.55951069	     39.72645157	     64.11459672	     49.32266831	      4.86751560	     22.86882075	     17.52836353	    -13.77041692	     60.55187991	     63.67841016	     83.00931047	     17.48834451	     13.78826028
